<?xml version="1.0" encoding="UTF-8"?>
<svg version="1.1" xmlns="http://www.w3.org/2000/svg" width="200" height="200">
<path d="M0 0 C3.22910257 1.62969717 5.36074583 3.72149165 7 7 C8.02705184 18.24705946 8.02705184 18.24705946 5.25 22.625 C2.35502708 25.68080475 0.38324106 26.81698064 -3.8046875 27.37109375 C-13.1140534 27.57244136 -13.1140534 27.57244136 -16.6875 24.625 C-20.6115783 20.17064085 -20.33379208 16.78679923 -20.28515625 10.9921875 C-19.88204466 6.76227688 -18.90351501 5.0648214 -16 2 C-11.13884941 -1.0730181 -5.53750285 -0.74671267 0 0 Z M-12 8 C-13.56918492 9.56918492 -13.28258943 11.14085159 -13.375 13.3125 C-13.3343822 16.95069416 -13.24001608 17.7119807 -10.8125 20.625 C-8.12846761 22.20462847 -8.12846761 22.20462847 -5.375 21.9375 C-2.80245543 20.92202188 -1.72020149 20.13810354 0 18 C0.67716527 14.93582715 0.61048297 12.07461423 0 9 C-2.20332864 6.35135301 -2.20332864 6.35135301 -5 5 C-7.90862304 5 -9.59201622 6.45642066 -12 8 Z " fill="#108726" transform="translate(125,87)"/>
<path d="M0 0 C2.3925 -0.0825 4.785 -0.165 7.25 -0.25 C7.99668945 -0.28641602 8.74337891 -0.32283203 9.51269531 -0.36035156 C12.85235491 -0.4160425 14.70515662 -0.20845615 17.453125 1.734375 C19.9667708 5.41597744 19.74931256 8.70919964 19 13 C17.5625 15.5 17.5625 15.5 15 17 C11.96463252 17.60602862 9.10710584 17.81722907 6 18 C6 20.97 6 23.94 6 27 C4.02 27 2.04 27 0 27 C0 18.09 0 9.18 0 0 Z M6 5 C6 7.64 6 10.28 6 13 C7.98 12.34 9.96 11.68 12 11 C12.042721 9.33388095 12.04063832 7.66617115 12 6 C10.93354885 4.70366379 10.93354885 4.70366379 8.4375 4.9375 C7.633125 4.958125 6.82875 4.97875 6 5 Z " fill="#108726" transform="translate(136,87)"/>
<path d="M0 0 C2.3925 -0.0825 4.785 -0.165 7.25 -0.25 C7.99668945 -0.28641602 8.74337891 -0.32283203 9.51269531 -0.36035156 C12.85235491 -0.4160425 14.70515662 -0.20845615 17.453125 1.734375 C19.9667708 5.41597744 19.74931256 8.70919964 19 13 C17.5625 15.5 17.5625 15.5 15 17 C11.96463252 17.60602862 9.10710584 17.81722907 6 18 C6 20.97 6 23.94 6 27 C4.02 27 2.04 27 0 27 C0 18.09 0 9.18 0 0 Z M6 5 C6 7.64 6 10.28 6 13 C7.98 12.34 9.96 11.68 12 11 C12.042721 9.33388095 12.04063832 7.66617115 12 6 C10.93354885 4.70366379 10.93354885 4.70366379 8.4375 4.9375 C7.633125 4.958125 6.82875 4.97875 6 5 Z " fill="#000000" transform="translate(30,87)"/>
<path d="M0 0 C0.96808594 -0.03738281 1.93617187 -0.07476562 2.93359375 -0.11328125 C5.5625 0.3125 5.5625 0.3125 7.3984375 1.84765625 C9.00324651 5.24575855 8.88532029 8.39150331 8.75 12.0625 C8.72969727 13.10857422 8.72969727 13.10857422 8.70898438 14.17578125 C8.6737945 15.88835541 8.61999155 17.60052941 8.5625 19.3125 C5.93688891 19.39324203 3.31374324 19.4528623 0.6875 19.5 C-0.43205078 19.53770508 -0.43205078 19.53770508 -1.57421875 19.57617188 C-3.7421875 19.60546875 -3.7421875 19.60546875 -7.4375 19.3125 C-9.59252531 16.07996204 -9.90606135 15.06099077 -9.4375 11.3125 C-7.79788241 9.15593291 -6.84082096 8.40375224 -4.17578125 7.80078125 C-3.37527344 7.74277344 -2.57476562 7.68476562 -1.75 7.625 C-0.94175781 7.55925781 -0.13351563 7.49351563 0.69921875 7.42578125 C1.62154297 7.36970703 1.62154297 7.36970703 2.5625 7.3125 C2.5625 6.6525 2.5625 5.9925 2.5625 5.3125 C-0.7375 5.6425 -4.0375 5.9725 -7.4375 6.3125 C-7.4375 4.6625 -7.4375 3.0125 -7.4375 1.3125 C-4.86465862 0.02607931 -2.87221047 0.07247277 0 0 Z M-3.4375 12.3125 C-3.4375 12.9725 -3.4375 13.6325 -3.4375 14.3125 C-1.7875 14.3125 -0.1375 14.3125 1.5625 14.3125 C1.8925 13.3225 2.2225 12.3325 2.5625 11.3125 C-0.49020463 11.15438612 -0.49020463 11.15438612 -3.4375 12.3125 Z " fill="#000000" transform="translate(59.4375,94.6875)"/>
<path d="M0 0 C0.90105469 0.01804687 1.80210938 0.03609375 2.73046875 0.0546875 C3.41753906 0.07789062 4.10460937 0.10109375 4.8125 0.125 C4.8125 1.775 4.8125 3.425 4.8125 5.125 C2.8325 5.125 0.8525 5.125 -1.1875 5.125 C0.2665625 6.0840625 0.2665625 6.0840625 1.75 7.0625 C4.8125 9.125 4.8125 9.125 5.8125 10.125 C6.0625 13.5625 6.0625 13.5625 5.8125 17.125 C2.39155758 19.40562828 1.13062778 19.34425007 -2.875 19.25 C-4.36580078 19.22292969 -4.36580078 19.22292969 -5.88671875 19.1953125 C-6.64597656 19.17210938 -7.40523438 19.14890625 -8.1875 19.125 C-8.1875 17.145 -8.1875 15.165 -8.1875 13.125 C-5.8775 13.455 -3.5675 13.785 -1.1875 14.125 C-4.00454235 12.18158484 -4.00454235 12.18158484 -6.375 10.9375 C-8.1875 9.125 -8.1875 9.125 -8.625 5.5625 C-8.480625 4.428125 -8.33625 3.29375 -8.1875 2.125 C-4.87379 -0.08414 -3.8428979 -0.09981553 0 0 Z " fill="#000000" transform="translate(97.1875,94.875)"/>
<path d="M0 0 C0.90105469 0.01804687 1.80210938 0.03609375 2.73046875 0.0546875 C3.41753906 0.07789062 4.10460937 0.10109375 4.8125 0.125 C4.8125 1.775 4.8125 3.425 4.8125 5.125 C2.8325 5.125 0.8525 5.125 -1.1875 5.125 C0.2665625 6.0840625 0.2665625 6.0840625 1.75 7.0625 C4.8125 9.125 4.8125 9.125 5.8125 10.125 C6.0625 13.5625 6.0625 13.5625 5.8125 17.125 C2.39155758 19.40562828 1.13062778 19.34425007 -2.875 19.25 C-4.36580078 19.22292969 -4.36580078 19.22292969 -5.88671875 19.1953125 C-6.64597656 19.17210938 -7.40523438 19.14890625 -8.1875 19.125 C-8.1875 17.145 -8.1875 15.165 -8.1875 13.125 C-5.8775 13.455 -3.5675 13.785 -1.1875 14.125 C-4.00454235 12.18158484 -4.00454235 12.18158484 -6.375 10.9375 C-8.1875 9.125 -8.1875 9.125 -8.625 5.5625 C-8.480625 4.428125 -8.33625 3.29375 -8.1875 2.125 C-4.87379 -0.08414 -3.8428979 -0.09981553 0 0 Z " fill="#000000" transform="translate(80.1875,94.875)"/>
<path d="M0 0 C1.98 0 3.96 0 6 0 C5.34794344 4.01290529 4.0955448 7.44372879 2.49609375 11.17578125 C2.00302734 12.33271484 1.50996094 13.48964844 1.00195312 14.68164062 C0.48568359 15.87982422 -0.03058594 17.07800781 -0.5625 18.3125 C-1.0883279 19.54213081 -1.61372303 20.77194678 -2.13867188 22.00195312 C-3.42153664 25.00315052 -4.70878448 28.00238815 -6 31 C-8.31 31 -10.62 31 -13 31 C-11.40014695 26.95661264 -9.79435704 22.91560851 -8.1875 18.875 C-7.73568359 17.73289062 -7.28386719 16.59078125 -6.81835938 15.4140625 C-6.37685547 14.30546875 -5.93535156 13.196875 -5.48046875 12.0546875 C-5.07723389 11.03874512 -4.67399902 10.02280273 -4.25854492 8.97607422 C-2.96284407 5.91213757 -1.51816749 2.95917272 0 0 Z " fill="#108726" transform="translate(167,87)"/>
<path d="M0 0 C8.415 3.96 8.415 3.96 17 8 C17 9.65 17 11.3 17 13 C11.39 15.64 5.78 18.28 0 21 C0 19.02 0 17.04 0 15 C2.97 13.68 5.94 12.36 9 11 C6.08596738 9.05731159 3.14191424 7.53604696 0 6 C0 4.02 0 2.04 0 0 Z " fill="#108726" transform="translate(178,93)"/>
<path d="M0 0 C0 1.98 0 3.96 0 6 C-2.97 7.32 -5.94 8.64 -9 10 C-6.08596738 11.94268841 -3.14191424 13.46395304 0 15 C0 16.98 0 18.96 0 21 C-5.61 18.36 -11.22 15.72 -17 13 C-17 11.35 -17 9.7 -17 8 C-14.35535616 6.66426106 -11.70937327 5.33130754 -9.0625 4 C-8.30775391 3.6184375 -7.55300781 3.236875 -6.77539062 2.84375 C-6.05673828 2.4828125 -5.33808594 2.121875 -4.59765625 1.75 C-3.93258057 1.41484375 -3.26750488 1.0796875 -2.58227539 0.734375 C-1 0 -1 0 0 0 Z " fill="#108726" transform="translate(22,93)"/>
</svg>
